<?xml version="1.0" encoding="utf-8"?>
<svg xmlns="http://www.w3.org/2000/svg" xmlns:xlink="http://www.w3.org/1999/xlink" width="600" height="400" viewBox="0 0 2400 1600">
<defs>
  <clipPath id="clip0300">
    <rect x="0" y="0" width="2000" height="2000"/>
  </clipPath>
</defs>
<defs>
  <clipPath id="clip0301">
    <rect x="0" y="0" width="2400" height="1600"/>
  </clipPath>
</defs>
<polygon clip-path="url(#clip0301)" points="
0,1600 2400,1600 2400,0 0,0 
  " fill="#ffffff" fill-rule="evenodd" fill-opacity="1"/>
<defs>
  <clipPath id="clip0302">
    <rect x="480" y="0" width="1681" height="1600"/>
  </clipPath>
</defs>
<polygon clip-path="url(#clip0301)" points="
279.259,1440.48 2321.26,1440.48 2321.26,47.2441 279.259,47.2441 
  " fill="#ffffff" fill-rule="evenodd" fill-opacity="1"/>
<defs>
  <clipPath id="clip0303">
    <rect x="279" y="47" width="2043" height="1394"/>
  </clipPath>
</defs>
<polyline clip-path="url(#clip0303)" style="stroke:#000000; stroke-width:2; stroke-opacity:0.1; fill:none" points="
  317.592,1440.48 317.592,47.2441 
  "/>
<polyline clip-path="url(#clip0303)" style="stroke:#000000; stroke-width:2; stroke-opacity:0.1; fill:none" points="
  804.061,1440.48 804.061,47.2441 
  "/>
<polyline clip-path="url(#clip0303)" style="stroke:#000000; stroke-width:2; stroke-opacity:0.1; fill:none" points="
  1290.53,1440.48 1290.53,47.2441 
  "/>
<polyline clip-path="url(#clip0303)" style="stroke:#000000; stroke-width:2; stroke-opacity:0.1; fill:none" points="
  1777,1440.48 1777,47.2441 
  "/>
<polyline clip-path="url(#clip0303)" style="stroke:#000000; stroke-width:2; stroke-opacity:0.1; fill:none" points="
  2263.47,1440.48 2263.47,47.2441 
  "/>
<polyline clip-path="url(#clip0303)" style="stroke:#000000; stroke-width:2; stroke-opacity:0.1; fill:none" points="
  279.259,1440.48 2321.26,1440.48 
  "/>
<polyline clip-path="url(#clip0303)" style="stroke:#000000; stroke-width:2; stroke-opacity:0.1; fill:none" points="
  279.259,1092.17 2321.26,1092.17 
  "/>
<polyline clip-path="url(#clip0303)" style="stroke:#000000; stroke-width:2; stroke-opacity:0.1; fill:none" points="
  279.259,743.863 2321.26,743.863 
  "/>
<polyline clip-path="url(#clip0303)" style="stroke:#000000; stroke-width:2; stroke-opacity:0.1; fill:none" points="
  279.259,395.554 2321.26,395.554 
  "/>
<polyline clip-path="url(#clip0303)" style="stroke:#000000; stroke-width:2; stroke-opacity:0.1; fill:none" points="
  279.259,47.2441 2321.26,47.2441 
  "/>
<polyline clip-path="url(#clip0301)" style="stroke:#000000; stroke-width:4; stroke-opacity:1; fill:none" points="
  279.259,1440.48 2321.26,1440.48 
  "/>
<polyline clip-path="url(#clip0301)" style="stroke:#000000; stroke-width:4; stroke-opacity:1; fill:none" points="
  279.259,1440.48 279.259,47.2441 
  "/>
<polyline clip-path="url(#clip0301)" style="stroke:#000000; stroke-width:4; stroke-opacity:1; fill:none" points="
  317.592,1440.48 317.592,1419.58 
  "/>
<polyline clip-path="url(#clip0301)" style="stroke:#000000; stroke-width:4; stroke-opacity:1; fill:none" points="
  804.061,1440.48 804.061,1419.58 
  "/>
<polyline clip-path="url(#clip0301)" style="stroke:#000000; stroke-width:4; stroke-opacity:1; fill:none" points="
  1290.53,1440.48 1290.53,1419.58 
  "/>
<polyline clip-path="url(#clip0301)" style="stroke:#000000; stroke-width:4; stroke-opacity:1; fill:none" points="
  1777,1440.48 1777,1419.58 
  "/>
<polyline clip-path="url(#clip0301)" style="stroke:#000000; stroke-width:4; stroke-opacity:1; fill:none" points="
  2263.47,1440.48 2263.47,1419.58 
  "/>
<polyline clip-path="url(#clip0301)" style="stroke:#000000; stroke-width:4; stroke-opacity:1; fill:none" points="
  279.259,1440.48 309.889,1440.48 
  "/>
<polyline clip-path="url(#clip0301)" style="stroke:#000000; stroke-width:4; stroke-opacity:1; fill:none" points="
  279.259,1092.17 309.889,1092.17 
  "/>
<polyline clip-path="url(#clip0301)" style="stroke:#000000; stroke-width:4; stroke-opacity:1; fill:none" points="
  279.259,743.863 309.889,743.863 
  "/>
<polyline clip-path="url(#clip0301)" style="stroke:#000000; stroke-width:4; stroke-opacity:1; fill:none" points="
  279.259,395.554 309.889,395.554 
  "/>
<polyline clip-path="url(#clip0301)" style="stroke:#000000; stroke-width:4; stroke-opacity:1; fill:none" points="
  279.259,47.2441 309.889,47.2441 
  "/>
<g clip-path="url(#clip0301)">
<text style="fill:#000000; fill-opacity:1; font-family:Arial,Helvetica Neue,Helvetica,sans-serif; font-size:48px; text-anchor:middle;" transform="rotate(0, 317.592, 1494.48)" x="317.592" y="1494.48">0</text>
</g>
<g clip-path="url(#clip0301)">
<text style="fill:#000000; fill-opacity:1; font-family:Arial,Helvetica Neue,Helvetica,sans-serif; font-size:48px; text-anchor:middle;" transform="rotate(0, 804.061, 1494.48)" x="804.061" y="1494.48">25</text>
</g>
<g clip-path="url(#clip0301)">
<text style="fill:#000000; fill-opacity:1; font-family:Arial,Helvetica Neue,Helvetica,sans-serif; font-size:48px; text-anchor:middle;" transform="rotate(0, 1290.53, 1494.48)" x="1290.53" y="1494.48">50</text>
</g>
<g clip-path="url(#clip0301)">
<text style="fill:#000000; fill-opacity:1; font-family:Arial,Helvetica Neue,Helvetica,sans-serif; font-size:48px; text-anchor:middle;" transform="rotate(0, 1777, 1494.48)" x="1777" y="1494.48">75</text>
</g>
<g clip-path="url(#clip0301)">
<text style="fill:#000000; fill-opacity:1; font-family:Arial,Helvetica Neue,Helvetica,sans-serif; font-size:48px; text-anchor:middle;" transform="rotate(0, 2263.47, 1494.48)" x="2263.47" y="1494.48">100</text>
</g>
<g clip-path="url(#clip0301)">
<text style="fill:#000000; fill-opacity:1; font-family:Arial,Helvetica Neue,Helvetica,sans-serif; font-size:48px; text-anchor:end;" transform="rotate(0, 255.259, 1457.98)" x="255.259" y="1457.98">-0.50</text>
</g>
<g clip-path="url(#clip0301)">
<text style="fill:#000000; fill-opacity:1; font-family:Arial,Helvetica Neue,Helvetica,sans-serif; font-size:48px; text-anchor:end;" transform="rotate(0, 255.259, 1109.67)" x="255.259" y="1109.67">-0.25</text>
</g>
<g clip-path="url(#clip0301)">
<text style="fill:#000000; fill-opacity:1; font-family:Arial,Helvetica Neue,Helvetica,sans-serif; font-size:48px; text-anchor:end;" transform="rotate(0, 255.259, 761.363)" x="255.259" y="761.363">0.00</text>
</g>
<g clip-path="url(#clip0301)">
<text style="fill:#000000; fill-opacity:1; font-family:Arial,Helvetica Neue,Helvetica,sans-serif; font-size:48px; text-anchor:end;" transform="rotate(0, 255.259, 413.054)" x="255.259" y="413.054">0.25</text>
</g>
<g clip-path="url(#clip0301)">
<text style="fill:#000000; fill-opacity:1; font-family:Arial,Helvetica Neue,Helvetica,sans-serif; font-size:48px; text-anchor:end;" transform="rotate(0, 255.259, 64.7441)" x="255.259" y="64.7441">0.50</text>
</g>
<g clip-path="url(#clip0301)">
<text style="fill:#000000; fill-opacity:1; font-family:Arial,Helvetica Neue,Helvetica,sans-serif; font-size:66px; text-anchor:middle;" transform="rotate(0, 1300.26, 1590.4)" x="1300.26" y="1590.4">n</text>
</g>
<g clip-path="url(#clip0301)">
<text style="fill:#000000; fill-opacity:1; font-family:Arial,Helvetica Neue,Helvetica,sans-serif; font-size:66px; text-anchor:middle;" transform="rotate(-90, 57.6, 743.863)" x="57.6" y="743.863">log10 q</text>
</g>
<polyline clip-path="url(#clip0303)" style="stroke:#009af9; stroke-width:4; stroke-opacity:1; fill:none" points="
  337.051,743.863 356.51,324.457 375.969,498.526 395.427,989.2 414.886,854.182 434.345,388.208 453.804,540.272 473.262,1018.72 492.721,876.187 512.18,405.253 
  531.639,553.87 551.097,1029.82 570.556,885.425 590.015,413.061 609.474,560.556 628.932,1035.62 648.391,890.488 667.85,417.526 687.309,564.524 706.767,1039.16 
  726.226,893.681 745.685,420.415 765.144,567.149 784.602,1041.56 804.061,895.878 823.52,422.435 842.979,569.013 862.437,1043.29 881.896,897.48 901.355,423.927 
  920.814,570.406 940.272,1044.59 959.731,898.702 979.19,425.074 998.649,571.485 1018.11,1045.61 1037.57,899.663 1057.02,425.983 1076.48,572.347 1095.94,1046.42 
  1115.4,900.439 1134.86,426.722 1154.32,573.05 1173.78,1047.09 1193.24,901.079 1212.69,427.333 1232.15,573.635 1251.61,1047.65 1271.07,901.616 1290.53,427.848 
  1309.99,574.129 1329.45,1048.13 1348.91,902.072 1368.36,428.287 1387.82,574.552 1407.28,1048.54 1426.74,902.465 1446.2,428.666 1465.66,574.918 1485.12,1048.89 
  1504.58,902.807 1524.03,428.997 1543.49,575.238 1562.95,1049.2 1582.41,903.107 1601.87,429.288 1621.33,575.52 1640.79,1049.47 1660.25,903.373 1679.7,429.546 
  1699.16,575.771 1718.62,1049.72 1738.08,903.61 1757.54,429.776 1777,575.995 1796.46,1049.94 1815.92,903.822 1835.37,429.983 1854.83,576.197 1874.29,1050.13 
  1893.75,904.014 1913.21,430.17 1932.67,576.379 1952.13,1050.31 1971.59,904.187 1991.04,430.34 2010.5,576.544 2029.96,1050.47 2049.42,904.345 2068.88,430.494 
  2088.34,576.695 2107.8,1050.62 2127.26,904.49 2146.71,430.636 2166.17,576.834 2185.63,1050.76 2205.09,904.623 2224.55,430.765 2244.01,576.961 2263.47,1050.88 
  
  "/>
</svg>
